<svg version="1.1" viewBox="0 0 48 48" height="250" width="250"
    xmlns="http://www.w3.org/2000/svg" 
    xmlns:xlink="http://www.w3.org/1999/xlink" overflow="hidden">
    <defs>
        <radialGradient cy="0.000000%" r="100.110000%" fx="50.000000%" fy="0.000000%" id="a" gradientTransform="matrix(0.000000,0.998900,-1.152000,0.000000,0.500000,-0.500000)">
            <stop offset="0" stop-color="#20c6b7"/>
            <stop offset="1" stop-color="#4d9abf"/>
        </radialGradient>
    </defs>
    <path d="M 32.8 17.8 L 32.8 17.8 C 32.8 17.8 32.8 17.8 32.8 17.8 C 32.8 17.7 32.7 17.7 32.7 17.7 L 33.5 12.9 L 37.1 16.6 L 33.4 18.2 C 33.4 18.2 33.4 18.2 33.3 18.2 L 33.3 18.2 C 33.3 18.2 33.3 18.2 33.3 18.2 C 33.2 18 33 17.9 32.8 17.8 Z M 38.1 17.5 L 41.9 21.4 C 42.8 22.2 43.2 22.6 43.3 23 C 43.3 23.1 43.3 23.2 43.4 23.3 L 34.1 19.3 C 34.1 19.3 34.1 19.3 34.1 19.3 C 34 19.3 34 19.3 34 19.3 C 34 19.2 34 19.2 34.1 19.2 L 34.1 19.2 L 38.1 17.5 Z M 43.2 24.5 C 43 24.9 42.6 25.3 41.9 25.9 L 37.6 30.3 L 31.9 29.1 L 31.9 29.1 C 31.8 29.1 31.8 29.1 31.8 29 C 31.7 28.6 31.5 28.1 31.1 27.9 C 31.1 27.8 31.1 27.8 31.1 27.8 C 31.1 27.8 31.1 27.8 31.1 27.7 L 32.2 21.2 L 32.2 21.2 C 32.2 21.2 32.2 21.1 32.3 21.1 C 32.7 21 33.1 20.8 33.4 20.4 C 33.4 20.4 33.4 20.4 33.4 20.4 C 33.5 20.4 33.5 20.4 33.5 20.4 L 43.2 24.5 Z M 36.6 31.3 L 29.4 38.5 L 30.6 30.9 L 30.6 30.9 C 30.6 30.9 30.6 30.9 30.6 30.9 C 30.6 30.9 30.7 30.9 30.7 30.8 L 30.7 30.8 C 31 30.7 31.2 30.5 31.4 30.3 C 31.4 30.3 31.4 30.3 31.5 30.3 C 31.5 30.3 31.5 30.3 31.5 30.3 L 36.6 31.3 Z M 27.9 40 L 27.1 40.8 L 18.1 27.9 C 18.1 27.9 18.1 27.9 18.1 27.9 C 18.1 27.8 18.1 27.8 18.1 27.8 C 18.1 27.8 18.1 27.8 18.1 27.8 L 18.1 27.7 C 18.1 27.7 18.1 27.7 18.2 27.6 L 18.2 27.6 L 18.2 27.6 C 18.2 27.6 18.2 27.5 18.2 27.5 C 18.3 27.5 18.3 27.5 18.3 27.5 L 28.2 29.6 C 28.3 29.6 28.3 29.6 28.3 29.6 C 28.3 29.6 28.3 29.6 28.3 29.6 C 28.5 30.2 28.9 30.6 29.4 30.8 C 29.4 30.8 29.4 30.9 29.4 30.9 C 29.4 30.9 29.4 30.9 29.4 30.9 C 29.2 31.7 28.2 38.2 27.9 40 Z M 26.2 41.7 C 25.6 42.3 25.2 42.6 24.8 42.7 C 24.4 42.9 24 42.9 23.6 42.7 C 23.2 42.6 22.8 42.2 21.9 41.4 L 13 32.4 L 15.3 28.7 C 15.3 28.7 15.3 28.7 15.3 28.7 C 15.4 28.7 15.4 28.7 15.4 28.7 C 16 28.9 16.6 28.8 17.1 28.6 C 17.1 28.6 17.1 28.6 17.1 28.6 C 17.2 28.6 17.2 28.6 17.2 28.6 L 26.2 41.7 Z M 12.1 31.5 L 10 29.4 L 14.1 27.7 C 14.1 27.7 14.1 27.7 14.1 27.7 C 14.2 27.7 14.2 27.7 14.2 27.8 C 14.2 27.8 14.3 27.9 14.3 28 L 14.3 28 C 14.4 28 14.4 28 14.3 28 L 12.1 31.5 Z M 9.1 28.5 L 6.5 25.9 C 6.1 25.5 5.7 25.2 5.5 24.9 L 13.4 26.5 C 13.5 26.5 13.5 26.5 13.5 26.5 C 13.5 26.5 13.6 26.6 13.6 26.6 C 13.6 26.6 13.5 26.7 13.5 26.7 L 13.4 26.7 L 9.1 28.5 Z M 5.1 23.5 C 5.1 23.4 5.1 23.2 5.1 23 C 5.3 22.6 5.7 22.2 6.5 21.4 L 9.8 18 C 11.4 20.3 12.9 22.5 14.5 24.7 C 14.5 24.8 14.5 24.8 14.5 24.8 C 14.3 25 14.2 25.2 14.1 25.4 C 14.1 25.4 14.1 25.4 14 25.4 C 14 25.4 14 25.4 14 25.4 L 14 25.4 L 5.1 23.5 Z M 10.7 17.1 L 15.2 12.6 C 15.6 12.8 17.2 13.5 18.6 14.1 C 19.6 14.5 20.5 14.9 20.8 15 C 20.9 15 20.9 15.1 20.9 15.1 C 20.9 15.1 20.9 15.1 20.9 15.1 C 20.8 15.8 21 16.5 21.4 17 C 21.5 17 21.4 17 21.4 17.1 L 21.4 17.1 L 16.8 24.2 C 16.8 24.2 16.8 24.2 16.8 24.2 C 16.8 24.2 16.7 24.2 16.7 24.2 C 16.5 24.2 16.3 24.1 16.2 24.1 C 16 24.1 15.8 24.2 15.6 24.2 L 15.6 24.2 C 15.6 24.2 15.6 24.2 15.6 24.2 C 15.6 24.2 15.6 24.2 15.5 24.1 L 10.7 17.1 Z M 16.1 11.7 L 21.9 5.9 C 22.8 5.1 23.2 4.7 23.6 4.6 C 24 4.4 24.4 4.4 24.8 4.6 C 25.3 4.7 25.7 5.1 26.5 5.9 L 27.8 7.2 L 23.6 13.6 C 23.6 13.6 23.6 13.6 23.6 13.6 C 23.6 13.7 23.5 13.6 23.5 13.6 C 22.8 13.4 22.1 13.6 21.6 14 C 21.5 14 21.5 14 21.5 14 C 20.9 13.8 16.7 12 16.1 11.7 Z M 28.6 8.1 L 32.5 11.9 L 31.5 17.6 L 31.5 17.6 C 31.5 17.6 31.5 17.6 31.5 17.6 C 31.5 17.7 31.5 17.7 31.5 17.7 C 31.3 17.7 31.1 17.8 30.9 17.9 C 30.9 17.9 30.9 17.9 30.9 18 C 30.9 18 30.9 18 30.9 18 C 30.9 18 30.8 18 30.8 18 L 25 15.5 L 25 15.5 C 25 15.5 24.9 15.5 24.9 15.4 C 24.9 15.1 24.8 14.8 24.6 14.5 C 24.6 14.5 24.5 14.4 24.6 14.4 L 28.6 8.1 Z M 24.7 16.7 L 30.2 19 C 30.2 19 30.2 19 30.2 19 C 30.2 19.1 30.2 19.1 30.2 19.1 C 30.2 19.2 30.2 19.3 30.2 19.4 L 30.2 19.5 C 30.2 19.5 30.2 19.6 30.1 19.6 L 30.1 19.6 C 29.3 20 18 24.8 18 24.8 C 18 24.8 17.9 24.8 17.9 24.7 C 17.9 24.7 17.9 24.7 17.9 24.6 C 18 24.6 18 24.6 18 24.6 L 22.4 17.7 L 22.5 17.7 C 22.5 17.6 22.5 17.6 22.6 17.6 L 22.6 17.6 C 22.7 17.6 22.8 17.6 22.9 17.6 C 23.6 17.6 24.2 17.3 24.6 16.7 C 24.6 16.7 24.6 16.7 24.6 16.7 C 24.6 16.6 24.7 16.7 24.7 16.7 Z M 18.5 25.9 L 30.7 20.6 C 30.7 20.6 30.8 20.6 30.8 20.6 C 30.8 20.7 30.9 20.7 31 20.8 L 31 20.8 C 31 20.8 31 20.8 31 20.9 C 31 20.9 31 20.9 31 20.9 L 30 27.3 L 30 27.4 C 30 27.4 30 27.5 29.9 27.5 C 29.3 27.5 28.8 27.8 28.5 28.3 L 28.5 28.3 C 28.5 28.4 28.5 28.4 28.5 28.4 C 28.5 28.4 28.4 28.4 28.4 28.4 L 18.6 26.4 C 18.6 26.4 18.5 25.9 18.5 25.9 Z" fill="url(#a)"/>
</svg>