<svg version="1.1" viewBox="0.000000 0.000000 48.000000 48.000000" height="250" width="250"
    xmlns="http://www.w3.org/2000/svg" 
    xmlns:xlink="http://www.w3.org/1999/xlink" id="Layer_1" overflow="hidden">
    <path d=" M 24.000000 4.000000 C 12.960000 4.000000 4.000000 12.960000 4.000000 24.000000 C 4.000000 35.049999 12.960000 44.000000 24.000000 44.000000 C 35.040001 44.000000 44.000000 35.040001 44.000000 24.000000 C 44.000000 12.960000 35.040001 4.000000 24.000000 4.000000 Z M 24.000000 38.980000 C 15.190000 38.980000 9.020000 32.189999 9.020000 24.000000 C 9.020000 15.820000 15.810000 9.020000 24.000000 9.020000 C 32.180000 9.020000 39.020000 15.700000 39.020000 23.879999 C 39.020000 32.070000 32.810001 38.980000 24.000000 38.980000 Z" fill="#C62828"/>
    <path d=" M 35.590000 31.129000 C 35.590000 31.129000 31.393000 38.346001 22.215000 37.375000 C 13.321000 36.424000 11.615000 28.952000 11.527000 28.481001 C 13.439000 32.000999 16.283001 34.698002 23.107000 34.698002 C 30.236000 34.698002 32.912998 29.344000 32.912998 29.344000 L 35.590000 31.129000 Z" fill="#C62828"/>
    <path d=" M 36.481998 30.236000 L 32.912998 28.461000 C 32.912998 28.461000 29.344000 33.805000 23.107000 33.805000 C 16.204000 33.805000 14.311000 30.451000 14.204000 30.246000 C 17.615999 33.647999 22.294001 33.305000 25.784000 32.021000 C 33.598999 29.158001 32.912998 22.215000 32.912998 22.215000 L 37.375000 22.215000 C 37.375000 22.215000 38.266998 27.569000 36.481998 30.236000 Z" fill="#C62828"/>
    <path d=" M 32.021000 21.323000 C 32.021000 21.323000 32.412998 28.549999 25.785000 31.129000 C 22.294001 32.492001 18.900999 31.226999 18.656000 31.129000 C 18.656000 31.129000 21.284000 31.600000 23.108000 31.129000 C 26.677000 30.237000 28.364000 28.638000 29.344000 26.677000 C 32.021000 21.323000 28.461000 17.764000 28.461000 17.764000 L 32.912998 14.195000 C 32.912998 14.195000 37.168999 17.872000 37.375000 21.323999 L 32.021000 21.323999 Z" fill="#C62828"/>
</svg>