<?xml version="1.0" encoding="utf-8" standalone="yes"?>
<!DOCTYPE svg PUBLIC "-//W3C//DTD SVG 1.1//EN" "http://www.w3.org/Graphics/SVG/1.1/DTD/svg11.dtd">
<svg xmlns="http://www.w3.org/2000/svg" version="1.1" baseProfile="full" width="600px" height="600px" viewBox="0 0 600 600" preserveAspectRatio="xMidYMid meet" id="svg_document" style="zoom: 1;">
    <title id="svg_document_title">Sitelify</title>
    <defs id="svg_document_defs" visibility="visible"></defs>

    <g transform="translate(300,300)">
        <path d="M0 300 
                 A 300 300, 0, 1, 1, 0 -300
                 A 0 300, 0, 1, 0, 0 300" fill="#6cf2d8" fill-opacity=".498" />
        <path d="M00 240 
                 A 240 240, 0, 1, 1, 0 -240
                 A 0 240, 0, 1, 0, 0 240" fill="#71f3d9" fill-opacity=".796" />
        <path d="M00 192 
                 A 192 192, 0, 1, 1, 0 -192
                 A 0 192, 0, 1, 0, 0 192" fill="#70f3da" fill-opacity=".937" />
        <path d="M00 154 
                 A 154 154, 0, 1, 1, 0 -154
                 A 0 154, 0, 1, 0, 0 154" fill="#70f2d8" fill-opacity=".988" />
        <path d="M00 122 
                 A 122 122, 0, 1, 1, 0 -122
                 A 0 122, 0, 1, 0, 0 122" fill="#b6f8eb" fill-opacity=".992" />
        <path d="M00 62 
                 A 62 62, 0, 1, 1, 0 -62
                 A 0 62, 0, 1, 0, 0 62" fill="#d9faf3" fill-opacity=".996" />
     
      <path d="M0 300 
                 A 300 300, 0, 1, 0, 0 -300
                 A 0 300, 0, 1, 0, 0 300" fill="#26c0c6" fill-opacity=".498" />
        <path d="M00 240 
                 A 240 240, 0, 1, 0, 0 -240
                 A 0 240, 0, 1, 0, 0 240" fill="#29c1c7" fill-opacity=".796" />
        <path d="M00 192 
                 A 192 192, 0, 1, 0, 0 -192
                 A 0 192, 0, 1, 0, 0 192" fill="#2ac1cc" fill-opacity=".8" />
        <path d="M00 154 
                 A 154 154, 0, 1, 0, 0 -154
                 A 0 154, 0, 1, 0, 0 154" fill="#2ac1cc" fill-opacity=".961" />
        <path d="M00 122 
                 A 122 122, 0, 1, 0, 0 -122
                 A 0 122, 0, 1, 0, 0 122" fill="#93e0e3" fill-opacity=".992" />
        <path d="M00 62 
                 A 62 62, 0, 1, 0, 0 -62
                 A 0 62, 0, 1, 0, 0 62" fill="#c8eeef" fill-opacity=".996" />
 <path d="M5810 1934 c-106 -28 -197 -98 -253 -195 -31 -52 -57 -147 -57 -206
l0 -42 -57 -3 -58 -3 -3 -117 -3 -118 61 0 60 0 0 -350 0 -351 123 3 122 3 3
348 2 347 145 0 145 0 0 120 0 120 -145 0 -145 0 0 49 c0 33 7 58 23 81 47 70
98 89 245 90 l82 0 0 120 0 120 -117 -1 c-70 0 -140 -6 -173 -15z"/>
<path d="M2509 1877 c-52 -35 -79 -82 -79 -137 0 -121 133 -199 240 -139 105
59 105 219 0 278 -51 28 -117 28 -161 -2z"/>
<path d="M5059 1877 c-52 -35 -79 -82 -79 -137 0 -85 73 -160 158 -160 89 0
162 71 162 160 0 123 -142 204 -241 137z"/>
<path d="M2940 1675 l0 -185 -60 0 -61 0 3 -122 3 -123 57 -3 56 -3 4 -187 c3
-187 3 -187 35 -255 58 -122 174 -213 302 -237 29 -5 100 -10 157 -10 l104 0
0 125 0 125 -109 0 c-123 0 -152 8 -199 53 -44 43 -52 79 -52 244 l0 143 178
2 177 3 3 123 3 122 -181 0 -180 0 0 185 0 185 -120 0 -120 0 0 -185z"/>
<path d="M4600 1205 l0 -655 120 0 120 0 0 655 0 655 -120 0 -120 0 0 -655z"/>
<path d="M4010 1519 c-84 -14 -189 -69 -251 -131 -93 -93 -139 -211 -139 -359
0 -281 202 -490 475 -490 138 0 247 46 342 143 l52 53 -89 91 -89 90 -31 -42
c-37 -51 -104 -86 -178 -92 -45 -4 -53 -2 -47 9 5 8 105 130 223 272 l215 258
-24 26 c-89 98 -190 156 -299 173 -74 11 -84 11 -160 -1z m134 -248 c6 -9 -4
-23 -163 -230 -107 -140 -109 -141 -110 -11 0 53 5 87 18 116 21 46 83 102
132 120 40 15 116 18 123 5z"/>
<path d="M1707 1473 c-64 -22 -144 -94 -173 -158 -33 -71 -33 -180 0 -251 31
-67 97 -129 163 -154 46 -17 78 -20 218 -20 135 0 166 -3 179 -16 20 -20 20
-27 -1 -53 -17 -20 -27 -21 -303 -24 l-285 -2 0 -120 0 -120 310 0 c355 0 364
2 449 90 137 141 104 363 -68 453 -48 25 -60 27 -234 32 -167 5 -185 7 -198
24 -16 23 -18 45 -4 66 8 12 53 16 267 20 l258 5 3 123 3 122 -268 -1 c-219 0
-277 -3 -316 -16z"/>
<path d="M2470 1020 l0 -470 120 0 120 0 0 470 0 470 -120 0 -120 0 0 -470z"/>
<path d="M5020 1020 l0 -470 120 0 120 0 0 470 0 470 -120 0 -120 0 0 -470z"/>
<path d="M6110 1233 c1 -285 7 -360 40 -445 25 -67 101 -156 166 -194 98 -58
234 -73 318 -35 60 26 59 10 -3 -50 -55 -53 -105 -69 -216 -69 l-65 0 0 -121
0 -121 123 3 c117 4 125 6 199 41 129 61 220 163 259 289 17 56 19 97 19 510
l0 449 -120 0 -120 0 0 -267 c0 -156 -4 -284 -11 -306 -20 -75 -98 -137 -171
-137 -49 0 -114 36 -140 78 -22 36 -23 45 -26 335 l-3 297 -125 0 -124 0 0
-257z"/>
   </g>
</svg>